<svg id="signature" width="328" height="159" viewBox="0 0 328 159" fill="none" xmlns="http://www.w3.org/2000/svg">
<path d="M256.554 7.68137C174.27 28.0823 89.2054 66.6146 37.0533 135.866C33.3632 140.766 26.5207 148.614 25.9393 155.155C25.4146 161.058 44.0871 149.654 45.175 148.85C72.5401 128.632 94.0457 98.6287 114.103 71.64C124.82 57.219 134.634 42.2245 144.987 27.5582C148.294 22.8735 152.315 14.8828 156.902 11.3148C160.126 8.80746 152.868 18.4297 150.544 21.7875C140.691 36.0199 132.462 51.0011 125.11 66.6708C122.943 71.29 103.681 111.576 115.652 112.462C125.443 113.188 134.275 103.061 141.14 97.341C143.124 95.6878 145.727 92.8375 148.246 91.9978C149.941 91.433 147.294 98.8443 147.124 99.2646C146.079 101.855 139.685 115.812 145.254 115.348C155.299 114.511 159.912 105.852 168.818 103.112C171.428 102.309 168.827 108.129 170.528 108.615C175.672 110.085 179.273 103.76 183.832 103.058C184.997 102.879 185.392 104.585 186.344 105.035C189.183 106.38 192.231 105.122 194.786 103.646C195.868 103.021 206.815 96.4043 207.449 98.6234C208.389 101.914 210.164 101.936 213.274 101.936" stroke-linecap="round"/>
<path d="M322.917 41.3438C288.914 52.6016 258.327 69.5233 232.723 94.99C225.424 102.249 216.348 111.82 212.739 121.706C211.174 125.995 218.857 122.663 220.059 122.027C236.881 113.121 247.618 91.3332 256.554 75.7543C268.579 54.7908 279.147 32.5124 288.667 10.2996C289.418 8.5462 293.291 1.02709 292.834 1.75036C289.558 6.93831 286.306 11.9581 283.43 17.4061C270.674 41.5751 259.504 67.6148 256.019 94.99C255.46 99.3823 254.599 107.368 259.867 109.417C267.3 112.307 276.712 107.633 283.056 104.18C297.798 96.1565 310.941 84.3603 325.802 76.9298" stroke-linecap="round"/>
<path d="M1.68097 109.63C19.216 103.618 37.4173 99.662 55.3806 95.1503C81.0126 88.7125 106.857 82.8967 132.911 78.4259C164.131 73.0686 196.258 68.3265 226.738 59.6177" stroke-linecap="round"/>
<circle cx="303.5" cy="113.5" r="3.5"/>
</svg>

